<svg xmlns="http://www.w3.org/2000/svg" xmlns:xlink="http://www.w3.org/1999/xlink" width="246.758" height="42.463" viewBox="0 0 246.758 42.463"><defs><clipPath id="a"><rect width="246.758" height="42.463" transform="translate(0 0)" fill="none"/></clipPath></defs><g transform="translate(0 0)"><path d="M205.374,9.781l-.654.409,9.117,2.271-13.357,30,2.241-2.772,12.258-26.945,1.106.275-10.96,23.663,21.822-26.9Z" fill="#fff"/><g clip-path="url(#a)"><path d="M243.46,10.315l.533-.533H231.347L226.532,24.05l.755-.272L220.3,41.39l2.036-2.329h0l-.01.011,6.5-15.846,1.515-.545h0l-5.914,14.006,15.8-17.074c-.06-.156-.121-.313-.175-.455l-7.345,2.672,4.1-9.273Z" fill="#fff"/><path d="M225.044,24.683l5.039-14.9H228.81l-5.083,15.322Z" fill="#fff"/><path d="M246.371,2.085l.386-1.913h-6.112l-1.5,7.521h6.252l.388-1.913h-3.772l.193-.988h3.191l.365-1.826h-3.18l.172-.881ZM235.38,7.693h2.535L239.421.172h-2.537ZM233.833.172l-2.267,4.351-.43-4.351H228.8L226.57,4.459,226.087.172h-2.5l.9,7.521H227.2l2.064-3.965.429,3.965h2.718L236.326.172ZM218.62,5.813a1.449,1.449,0,0,1-1.08-.4,1.45,1.45,0,0,1-.392-1.064,2.782,2.782,0,0,1,.236-1.149,2,2,0,0,1,.683-.838,1.784,1.784,0,0,1,1.048-.312,1.449,1.449,0,0,1,1.079.4,1.449,1.449,0,0,1,.393,1.063,2.784,2.784,0,0,1-.237,1.15,2,2,0,0,1-.683.838,1.779,1.779,0,0,1-1.047.312M218.4,7.865a5.151,5.151,0,0,0,2.444-.57,4.177,4.177,0,0,0,1.687-1.6,4.5,4.5,0,0,0,.607-2.337,3.287,3.287,0,0,0-.467-1.751A3.13,3.13,0,0,0,221.343.425,4.514,4.514,0,0,0,219.329,0a5.154,5.154,0,0,0-2.444.57A4.181,4.181,0,0,0,215.2,2.165a4.49,4.49,0,0,0-.608,2.337,3.287,3.287,0,0,0,.467,1.751,3.141,3.141,0,0,0,1.333,1.187,4.517,4.517,0,0,0,2.014.425M210.347,5.92h-1.633l.237-1.182h1.633a.74.74,0,0,1,.446.129.425.425,0,0,1,.177.365.6.6,0,0,1-.236.511,1.017,1.017,0,0,1-.624.177m.4-3.975a.873.873,0,0,1,.5.118.392.392,0,0,1,.171.344q0,.656-.837.655h-1.289l.224-1.117Zm1.967,1.88a2.314,2.314,0,0,0,.987-.747,1.81,1.81,0,0,0,.355-1.112,1.509,1.509,0,0,0-.687-1.327,3.585,3.585,0,0,0-2.01-.467h-3.986l-1.5,7.521h4.341a4.784,4.784,0,0,0,2.53-.6,1.969,1.969,0,0,0,.983-1.794,1.492,1.492,0,0,0-.263-.886,1.766,1.766,0,0,0-.746-.586" fill="#fff"/><path d="M178.592,6.573,153.857,31.308m0-24.735,24.735,24.735" fill="none" stroke="#fff" stroke-miterlimit="10" stroke-width="1.505"/><path d="M64.224,20.967C63.629,19,62.44,15.407,61.875,13.3h-.03c-.475,1.993-1.546,5.263-2.319,7.672Zm-5.768,3.716-1.427,4.4a.323.323,0,0,1-.327.237H53.253c-.208,0-.268-.119-.238-.3l5.946-17.156a5.4,5.4,0,0,0,.3-1.813.2.2,0,0,1,.178-.208h4.757c.149,0,.208.029.238.178l6.749,19.029c.06.148.03.267-.148.267H67.168a.3.3,0,0,1-.327-.208l-1.517-4.43Z" fill="#fff"/><path d="M81.255,17.845a3.082,3.082,0,0,0-1.1-.149A3.967,3.967,0,0,0,75.9,21.859c0,2.943,1.695,4.222,3.954,4.222a4.213,4.213,0,0,0,1.4-.178Zm-9.6,4.222c0-4.252,3.182-7.82,8.622-7.82.238,0,.536.03.982.06V8.45a.188.188,0,0,1,.208-.209h3.746c.149,0,.178.06.178.179V25.992a16.789,16.789,0,0,0,.119,2.17c0,.149-.029.208-.208.268a14.938,14.938,0,0,1-5.857,1.189c-4.4,0-7.79-2.5-7.79-7.552" fill="#fff"/><path d="M91.949,21.889c0,2.616,1.219,4.281,3.211,4.281,1.725,0,3.033-1.486,3.033-4.222,0-2.319-.951-4.252-3.211-4.252-1.725,0-3.033,1.547-3.033,4.193m10.466-.03c0,4.668-3.033,7.76-7.314,7.76-5.084,0-7.344-3.835-7.344-7.671,0-4.222,2.825-7.7,7.4-7.7,4.787,0,7.255,3.6,7.255,7.612" fill="#fff"/><path d="M110.717,17.755a6.062,6.062,0,0,0-1.755.238v8.058a4.634,4.634,0,0,0,1.1.119,4.093,4.093,0,0,0,4.312-4.46c0-2.706-1.576-3.955-3.657-3.955m-2.052-9.514c.238,0,.3.03.3.238v6.1a9.578,9.578,0,0,1,2.5-.327,6.8,6.8,0,0,1,7.136,7.076c0,5.56-4.4,8.3-8.92,8.3a15.558,15.558,0,0,1-4.668-.684.351.351,0,0,1-.178-.3V8.449c0-.149.059-.208.208-.208Z" fill="#fff"/><path d="M128.273,20.134a9.833,9.833,0,0,0,1.487-.059v-.209a2.418,2.418,0,0,0-2.527-2.348,2.817,2.817,0,0,0-2.855,2.616Zm-3.865,2.884c.149,1.695,1.338,3.092,4.252,3.092a9.206,9.206,0,0,0,3.657-.684c.089-.059.178-.029.178.149V28.4c0,.208-.059.3-.208.356a9.978,9.978,0,0,1-4.549.863c-5.59,0-7.552-3.836-7.552-7.523,0-4.1,2.527-7.849,7.195-7.849,4.49,0,6.274,3.479,6.274,6.422a9.533,9.533,0,0,1-.149,1.992.256.256,0,0,1-.238.238,27.443,27.443,0,0,1-3.062.119Z" fill="#fff"/><path d="M25.861,1.717H40.247V36.163Z" fill="#fff"/><path d="M15.725,1.717H1.327V36.163Z" fill="#fff"/><path d="M20.793,14.411l9.168,21.75H23.953L21.21,29.234H14.5Z" fill="#fff"/><path d="M64.224,20.967C63.629,19,62.44,15.407,61.875,13.3h-.03c-.475,1.993-1.546,5.263-2.319,7.672Zm-5.768,3.716-1.427,4.4a.323.323,0,0,1-.327.237H53.253c-.208,0-.268-.119-.238-.3l5.946-17.156a5.4,5.4,0,0,0,.3-1.813.2.2,0,0,1,.178-.208h4.757c.149,0,.208.029.238.178l6.749,19.029c.06.148.03.267-.148.267H67.168a.3.3,0,0,1-.327-.208l-1.517-4.43Z" fill="#fff"/><path d="M81.255,17.845a3.082,3.082,0,0,0-1.1-.149A3.967,3.967,0,0,0,75.9,21.859c0,2.943,1.695,4.222,3.954,4.222a4.213,4.213,0,0,0,1.4-.178Zm-9.6,4.222c0-4.252,3.182-7.82,8.622-7.82.238,0,.536.03.982.06V8.45a.188.188,0,0,1,.208-.209h3.746c.149,0,.178.06.178.179V25.992a16.789,16.789,0,0,0,.119,2.17c0,.149-.029.208-.208.268a14.938,14.938,0,0,1-5.857,1.189c-4.4,0-7.79-2.5-7.79-7.552" fill="#fff"/><path d="M91.949,21.889c0,2.616,1.219,4.281,3.211,4.281,1.725,0,3.033-1.486,3.033-4.222,0-2.319-.951-4.252-3.211-4.252-1.725,0-3.033,1.547-3.033,4.193m10.466-.03c0,4.668-3.033,7.76-7.314,7.76-5.084,0-7.344-3.835-7.344-7.671,0-4.222,2.825-7.7,7.4-7.7,4.787,0,7.255,3.6,7.255,7.612" fill="#fff"/><path d="M110.717,17.755a6.062,6.062,0,0,0-1.755.238v8.058a4.634,4.634,0,0,0,1.1.119,4.093,4.093,0,0,0,4.312-4.46c0-2.706-1.576-3.955-3.657-3.955m-2.052-9.514c.238,0,.3.03.3.238v6.1a9.578,9.578,0,0,1,2.5-.327,6.8,6.8,0,0,1,7.136,7.076c0,5.56-4.4,8.3-8.92,8.3a15.558,15.558,0,0,1-4.668-.684.351.351,0,0,1-.178-.3V8.449c0-.149.059-.208.208-.208Z" fill="#fff"/><path d="M128.273,20.134a9.833,9.833,0,0,0,1.487-.059v-.209a2.418,2.418,0,0,0-2.527-2.348,2.817,2.817,0,0,0-2.855,2.616Zm-3.865,2.884c.149,1.695,1.338,3.092,4.252,3.092a9.206,9.206,0,0,0,3.657-.684c.089-.059.178-.029.178.149V28.4c0,.208-.059.3-.208.356a9.978,9.978,0,0,1-4.549.863c-5.59,0-7.552-3.836-7.552-7.523,0-4.1,2.527-7.849,7.195-7.849,4.49,0,6.274,3.479,6.274,6.422a9.533,9.533,0,0,1-.149,1.992.256.256,0,0,1-.238.238,27.443,27.443,0,0,1-3.062.119Z" fill="#fff"/><path d="M25.861,1.717H40.247V36.163Z" fill="#fff"/><path d="M15.725,1.717H1.327V36.163Z" fill="#fff"/><path d="M20.793,14.411l9.168,21.75H23.953L21.21,29.234H14.5Z" fill="#fff"/></g></g></svg>