<?xml version="1.0" encoding="UTF-8"?>
<svg width="213px" height="54px" viewBox="0 0 213 54" version="1.1" xmlns="http://www.w3.org/2000/svg" xmlns:xlink="http://www.w3.org/1999/xlink">
    <!-- Generator: sketchtool 54.1 (76490) - https://sketchapp.com -->
    <title>524ED560-2DBD-4F9E-98DF-76D89701413B</title>
    <desc>Created with sketchtool.</desc>
    <defs>
        <polygon id="path-1" points="0.000252380946 0.82758137 52.1699179 0.82758137 52.1699179 52.744061 0.000252380946 52.744061"></polygon>
    </defs>
    <g id="Desktop" stroke="none" stroke-width="1" fill="none" fill-rule="evenodd">
        <g id="D-Homepage" transform="translate(-29.000000, -21.000000)">
            <g id="logos" transform="translate(30.000000, 20.000000)">
                <g id="Group-3" transform="translate(159.000000, 1.684046)">
                    <mask id="mask-2" fill="white">
                        <use xlink:href="#path-1"></use>
                    </mask>
                    <g id="Clip-2"></g>
                    <path d="M26.0850857,44.4318281 C16.2901809,44.4318281 8.35279995,36.5315025 8.35279995,26.7851304 C8.35279995,17.040014 16.2901809,9.13843262 26.0850857,9.13843262 C35.8787286,9.13843262 43.8173715,17.040014 43.8173715,26.7851304 C43.8173715,36.5315025 35.8787286,44.4318281 26.0850857,44.4318281 M26.0850851,0.827455842 C11.6791807,0.827455842 0.000252380946,12.4487581 0.000252380946,26.78513 C0.000252380946,41.121502 11.6791807,52.74406 26.0850851,52.74406 C40.4909895,52.74406 52.1699179,41.121502 52.1699179,26.78513 C52.1699179,12.4487581 40.4909895,0.827455842 26.0850851,0.827455842" id="Fill-1" fill="#5091CD" mask="url(#mask-2)"></path>
                </g>
                <g id="Group" transform="translate(-0.000000, 1.356530)">
                    <path d="M44.1999826,15.9522275 C54.3002684,20.1592044 58.1023875,32.3732511 52.2471494,41.6926466 C45.2322207,52.8480421 29.0306253,50.8927398 23.2536253,39.7147396 C23.1425777,39.4937163 22.3601967,39.5740884 22.4813396,39.8101814 C27.974411,50.4406467 41.8477921,52.8329724 50.556197,44.7593443 C59.9952447,35.9950186 56.0795542,20.4040881 44.765316,15.6935299 C44.5571017,15.6043671 43.8050064,15.7814368 44.1999826,15.9522275" id="Fill-4" fill="#5091CD"></path>
                    <path d="M44.1999826,15.9522275 C54.3002684,20.1592044 58.1023875,32.3732511 52.2471494,41.6926466 C45.2322207,52.8480421 29.0306253,50.8927398 23.2536253,39.7147396 C23.1425777,39.4937163 22.3601967,39.5740884 22.4813396,39.8101814 C27.974411,50.4406467 41.8477921,52.8329724 50.556197,44.7593443 C59.9952447,35.9950186 56.0795542,20.4040881 44.765316,15.6935299 C44.5571017,15.6043671 43.8050064,15.7814368 44.1999826,15.9522275" id="Fill-6" fill="#5091CD"></path>
                    <path d="M44.1999826,15.9522275 C54.3002684,20.1592044 58.1023875,32.3732511 52.2471494,41.6926466 C45.2322207,52.8480421 29.0306253,50.8927398 23.2536253,39.7147396 C23.1425777,39.4937163 22.3601967,39.5740884 22.4813396,39.8101814 C27.974411,50.4406467 41.8477921,52.8329724 50.556197,44.7593443 C59.9952447,35.9950186 56.0795542,20.4040881 44.765316,15.6935299 C44.5571017,15.6043671 43.8050064,15.7814368 44.1999826,15.9522275 Z" id="Stroke-8" stroke="#5091CD" stroke-width="0.133"></path>
                    <path d="M29.3948118,33.6629726 C29.8566689,39.7423679 32.0738357,46.2926935 37.6199073,49.4259493 C37.821812,49.5452517 38.5713835,49.3882749 38.1865025,49.1672517 C32.7678833,46.1080889 30.6453594,39.5740889 30.199907,33.6629726 C30.1759308,33.3879494 29.3796689,33.4118098 29.3948118,33.6629726" id="Fill-10" fill="#5091CD"></path>
                    <path d="M29.3948118,33.6629726 C29.8566689,39.7423679 32.0738357,46.2926935 37.6199073,49.4259493 C37.821812,49.5452517 38.5713835,49.3882749 38.1865025,49.1672517 C32.7678833,46.1080889 30.6453594,39.5740889 30.199907,33.6629726 C30.1759308,33.3879494 29.3796689,33.4118098 29.3948118,33.6629726" id="Fill-12" fill="#5091CD"></path>
                    <path d="M29.3948118,33.6629726 C29.8566689,39.7423679 32.0738357,46.2926935 37.6199073,49.4259493 C37.821812,49.5452517 38.5713835,49.3882749 38.1865025,49.1672517 C32.7678833,46.1080889 30.6453594,39.5740889 30.199907,33.6629726 C30.1759308,33.3879494 29.3796689,33.4118098 29.3948118,33.6629726 Z" id="Stroke-14" stroke="#5091CD" stroke-width="0.133"></path>
                    <path d="M37.910145,27.6034189 L37.910145,49.2423486 C37.910145,49.4935114 38.7139784,49.4935114 38.7139784,49.2423486 L38.7139784,27.6034189 C38.7139784,27.3447212 37.910145,27.3447212 37.910145,27.6034189" id="Fill-16" fill="#5091CD"></path>
                    <path d="M37.910145,27.6034189 L37.910145,49.2423486 C37.910145,49.4935114 38.7139784,49.4935114 38.7139784,49.2423486 L38.7139784,27.6034189 C38.7139784,27.3447212 37.910145,27.3447212 37.910145,27.6034189" id="Fill-18" fill="#5091CD"></path>
                    <path d="M37.910145,27.6034189 L37.910145,49.2423486 C37.910145,49.4935114 38.7139784,49.4935114 38.7139784,49.2423486 L38.7139784,27.6034189 C38.7139784,27.3447212 37.910145,27.3447212 37.910145,27.6034189 Z" id="Stroke-20" stroke="#5091CD" stroke-width="0.133"></path>
                    <path d="M31.456512,32.2631161 L55.2307975,32.2631161 C55.714107,32.2631161 55.714107,31.9014417 55.2307975,31.9014417 L31.456512,31.9014417 C30.9807739,31.9014417 30.9807739,32.2631161 31.456512,32.2631161" id="Fill-22" fill="#5091CD"></path>
                    <path d="M31.456512,32.2631161 L55.2307975,32.2631161 C55.714107,32.2631161 55.714107,31.9014417 55.2307975,31.9014417 L31.456512,31.9014417 C30.9807739,31.9014417 30.9807739,32.2631161 31.456512,32.2631161" id="Fill-24" fill="#5091CD"></path>
                    <path d="M31.456512,32.2631161 L55.2307975,32.2631161 C55.714107,32.2631161 55.714107,31.9014417 55.2307975,31.9014417 L31.456512,31.9014417 C30.9807739,31.9014417 30.9807739,32.2631161 31.456512,32.2631161 Z" id="Stroke-26" stroke="#5091CD" stroke-width="0.133"></path>
                    <path d="M49.8268148,19.7975307 C47.3408624,21.9449725 44.4687671,23.3150655 41.2610051,23.9304143 C40.7549813,24.0258562 41.4086479,24.2920887 41.6622908,24.2406004 C44.9659576,23.6114376 47.9516243,22.1961353 50.5196005,19.9821353 C50.7732434,19.7586005 49.9984339,19.6480888 49.8268148,19.7975307" id="Fill-28" fill="#5091CD"></path>
                    <path d="M49.8268148,19.7975307 C47.3408624,21.9449725 44.4687671,23.3150655 41.2610051,23.9304143 C40.7549813,24.0258562 41.4086479,24.2920887 41.6622908,24.2406004 C44.9659576,23.6114376 47.9516243,22.1961353 50.5196005,19.9821353 C50.7732434,19.7586005 49.9984339,19.6480888 49.8268148,19.7975307 Z" id="Stroke-30" stroke="#5091CD" stroke-width="0.133"></path>
                    <path d="M50.638853,44.2920561 C43.5444244,38.1737304 33.1551625,38.1523815 26.0392816,44.2481026 C25.7856387,44.461591 26.5516149,44.5796375 26.7308054,44.4327073 C33.5122816,38.6182885 43.1809958,38.6408932 49.9448053,44.4766607 C50.1252577,44.6248468 50.889972,44.5080561 50.638853,44.2920561" id="Fill-32" fill="#5091CD"></path>
                    <path d="M50.638853,44.2920561 C43.5444244,38.1737304 33.1551625,38.1523815 26.0392816,44.2481026 C25.7856387,44.461591 26.5516149,44.5796375 26.7308054,44.4327073 C33.5122816,38.6182885 43.1809958,38.6408932 49.9448053,44.4766607 C50.1252577,44.6248468 50.889972,44.5080561 50.638853,44.2920561" id="Fill-34" fill="#5091CD"></path>
                    <path d="M50.638853,44.2920561 C43.5444244,38.1737304 33.1551625,38.1523815 26.0392816,44.2481026 C25.7856387,44.461591 26.5516149,44.5796375 26.7308054,44.4327073 C33.5122816,38.6182885 43.1809958,38.6408932 49.9448053,44.4766607 C50.1252577,44.6248468 50.889972,44.5080561 50.638853,44.2920561 Z" id="Stroke-36" stroke="#5091CD" stroke-width="0.133"></path>
                    <path d="M43.3213193,19.8490183 C48.2793431,28.4412971 48.054724,43.9066454 38.3203907,49.233808 C37.9317241,49.4397614 38.6838193,49.6042731 38.8844622,49.4937614 C48.7929383,44.0761802 49.1727716,28.5593436 44.0961288,19.7523206 C43.9686764,19.5287857 43.1875574,19.6192043 43.3213193,19.8490183" id="Fill-38" fill="#5091CD"></path>
                    <path d="M43.3213193,19.8490183 C48.2793431,28.4412971 48.054724,43.9066454 38.3203907,49.233808 C37.9317241,49.4397614 38.6838193,49.6042731 38.8844622,49.4937614 C48.7929383,44.0761802 49.1727716,28.5593436 44.0961288,19.7523206 C43.9686764,19.5287857 43.1875574,19.6192043 43.3213193,19.8490183" id="Fill-40" fill="#5091CD"></path>
                    <path d="M43.3213193,19.8490183 C48.2793431,28.4412971 48.054724,43.9066454 38.3203907,49.233808 C37.9317241,49.4397614 38.6838193,49.6042731 38.8844622,49.4937614 C48.7929383,44.0761802 49.1727716,28.5593436 44.0961288,19.7523206 C43.9686764,19.5287857 43.1875574,19.6192043 43.3213193,19.8490183 Z" id="Stroke-42" stroke="#5091CD" stroke-width="0.133"></path>
                    <polygon id="Fill-44" fill="#5091CD" points="67.928586 26.4986791 70.128086 26.4986791 70.128086 17.7004465 67.928586 17.7004465"></polygon>
                    <path d="M77.1339313,26.4990558 L75.0379075,26.4990558 C75.0379075,25.0787301 75.0909075,23.7751952 75.0909075,23.0970557 C75.0909075,21.6377998 74.8688123,21.4155207 74.3968599,21.4155207 C74.1091456,21.4155207 73.7684313,21.5724975 73.413836,21.8073347 L73.413836,26.4990558 L71.3190741,26.4990558 L71.3190741,19.9173346 L73.0352646,19.9173346 L73.1791217,20.5691021 C73.7154313,20.0604974 74.3703599,19.7603579 75.1312884,19.7603579 C76.5585028,19.7603579 77.1869313,20.6469626 77.1869313,22.7717998 C77.1869313,23.5277999 77.1339313,24.9606836 77.1339313,26.4990558" id="Fill-46" fill="#5091CD"></path>
                    <path d="M80.1063468,26.6549025 C78.8343469,26.6549025 78.3384183,26.1990421 78.3384183,24.9469956 L78.3384183,21.3629026 L77.6304897,21.3629026 L77.6304897,19.9162049 L78.4305373,19.9162049 C78.6122516,19.3171817 78.7573707,18.7307166 78.9012278,17.9872747 L80.4344421,17.9872747 L80.4344421,19.9162049 L81.6912992,19.9162049 L81.6912992,21.3629026 L80.4344421,21.3629026 L80.4344421,24.4396467 C80.4344421,24.9608095 80.6035373,25.1039723 80.9051326,25.1039723 C81.1007278,25.1039723 81.349323,25.0914142 81.7291564,24.9997398 L81.8730135,26.1864839 C81.1928468,26.5381119 80.6426564,26.6549025 80.1063468,26.6549025" id="Fill-47" fill="#5091CD"></path>
                    <path d="M84.2827438,23.6698325 L84.2827438,23.7351348 C84.2827438,24.6606697 84.7408152,25.0914139 85.5534819,25.0914139 C86.1289105,25.0914139 86.9806963,24.9733674 87.805982,24.725972 L88.0810773,25.900158 C87.2027915,26.3685767 86.1819105,26.6674604 85.1471486,26.6674604 C83.3401009,26.6674604 82.1476008,25.8210418 82.1476008,23.3709487 C82.1476008,20.986158 83.365339,19.7604836 85.3162438,19.7604836 C87.0980534,19.7604836 88.3170535,20.6596464 88.1201963,23.6698325 L84.2827438,23.6698325 Z M86.1162913,22.3801115 C86.1162913,21.4809488 85.8159579,21.1293209 85.2518865,21.1293209 C84.676458,21.1293209 84.3357437,21.6115534 84.2953627,22.4064836 L86.1162913,22.4064836 L86.1162913,22.3801115 Z" id="Fill-48" fill="#5091CD"></path>
                    <path d="M92.7931553,21.7155353 C92.492822,21.6376748 92.2959648,21.6238608 92.1659886,21.6238608 C91.8240124,21.6238608 91.5501791,21.8335818 91.0264886,22.4979074 L91.0264886,26.4989306 L88.9292029,26.4989306 L88.9292029,19.9172097 L90.6466553,19.9172097 L90.8031315,20.8678608 C91.4328219,20.0214422 91.8517743,19.7740469 92.3363458,19.7740469 C92.5571791,19.7740469 92.8070363,19.8129771 93.0417506,19.9297678 L92.7931553,21.7155353 Z" id="Fill-49" fill="#5091CD"></path>
                    <path d="M99.3294499,26.4990558 L97.2334261,26.4990558 C97.2334261,25.0787301 97.2864261,23.7751952 97.2864261,23.0970557 C97.2864261,21.6377998 97.061807,21.4155207 96.5923784,21.4155207 C96.3034023,21.4155207 95.9639499,21.5724975 95.6093546,21.8073347 L95.6093546,26.4990558 L93.5145927,26.4990558 L93.5145927,19.9173346 L95.2295213,19.9173346 L95.3721165,20.5691021 C95.9109499,20.0604974 96.5658784,19.7603579 97.3242832,19.7603579 C98.7527594,19.7603579 99.3824499,20.6469626 99.3824499,22.7717998 C99.3824499,23.5277999 99.3294499,24.9606836 99.3294499,26.4990558" id="Fill-50" fill="#5091CD"></path>
                    <path d="M104.224253,26.4990555 L104.093014,25.8862183 C103.557967,26.3558927 102.940895,26.6685903 102.11561,26.6685903 C100.727514,26.6685903 99.9829906,26.0042648 99.9829906,24.727102 C99.9829906,23.3318927 101.13511,22.4063578 103.425467,22.4063578 L103.767443,22.4063578 L103.767443,22.0421718 C103.767443,21.5071951 103.425467,21.2459858 102.6923,21.2459858 C102.026014,21.2459858 101.265086,21.4155206 100.611419,21.6377997 L100.348943,20.3857532 C101.239848,20.0077532 102.182491,19.7603579 103.215991,19.7603579 C104.932181,19.7603579 105.835705,20.54273 105.835705,21.8462648 L105.835705,26.4990555 L104.224253,26.4990555 Z M103.767443,23.6445904 L103.348491,23.6445904 C102.352848,23.6445904 102.010872,23.971102 102.010872,24.4922648 C102.010872,24.9481252 102.273348,25.2080787 102.744038,25.2080787 C103.072133,25.2080787 103.464586,25.0134276 103.767443,24.7660322 L103.767443,23.6445904 Z" id="Fill-51" fill="#5091CD"></path>
                    <path d="M108.716123,26.6549025 C107.445385,26.6549025 106.948194,26.1990421 106.948194,24.9469956 L106.948194,21.3629026 L106.240266,21.3629026 L106.240266,19.9162049 L107.040313,19.9162049 C107.223289,19.3171817 107.367147,18.7307166 107.511004,17.9872747 L109.044218,17.9872747 L109.044218,19.9162049 L110.301075,19.9162049 L110.301075,21.3629026 L109.044218,21.3629026 L109.044218,24.4396467 C109.044218,24.9608095 109.213313,25.1039723 109.514908,25.1039723 C109.711766,25.1039723 109.960361,25.0914142 110.340194,24.9997398 L110.484051,26.1864839 C109.803885,26.5381119 109.252432,26.6549025 108.716123,26.6549025" id="Fill-52" fill="#5091CD"></path>
                    <path d="M112.146866,19.3572422 C111.151223,19.3572422 110.902628,19.0960329 110.902628,18.3011027 C110.902628,17.5312887 111.177723,17.232405 112.146866,17.232405 C113.12989,17.232405 113.364604,17.5061724 113.364604,18.3011027 C113.364604,19.0571027 113.102128,19.3572422 112.146866,19.3572422 L112.146866,19.3572422 Z M111.085604,26.4990564 L113.181628,26.4990564 L113.181628,19.9173352 L111.085604,19.9173352 L111.085604,26.4990564 Z" id="Fill-53" fill="#5091CD"></path>
                    <path d="M117.017061,26.6689676 C115.040918,26.6689676 113.927918,25.782363 113.927918,23.3448281 C113.927918,20.9211072 115.183513,19.7607351 117.266918,19.7607351 C119.245585,19.7607351 120.357323,20.6335258 120.357323,23.0710607 C120.357323,25.5085955 119.099204,26.6689676 117.017061,26.6689676 M117.136942,21.2727351 C116.508513,21.2727351 116.074418,21.6771072 116.074418,23.0585025 C116.074418,24.8178979 116.493371,25.1444095 117.148299,25.1444095 C117.765371,25.1444095 118.209561,24.7525955 118.209561,23.3586421 C118.209561,21.5979909 117.790609,21.2727351 117.136942,21.2727351" id="Fill-54" fill="#5091CD"></path>
                    <path d="M126.904088,26.4990558 L124.809326,26.4990558 C124.809326,25.0787301 124.862326,23.7751952 124.862326,23.0970557 C124.862326,21.6377998 124.637707,21.4155207 124.167017,21.4155207 C123.879302,21.4155207 123.538588,21.5724975 123.185255,21.8073347 L123.185255,26.4990558 L121.090493,26.4990558 L121.090493,19.9173346 L122.80416,19.9173346 L122.948017,20.5691021 C123.485588,20.0604974 124.141779,19.7603579 124.900183,19.7603579 C126.327398,19.7603579 126.957088,20.6469626 126.957088,22.7717998 C126.957088,23.5277999 126.904088,24.9606836 126.904088,26.4990558" id="Fill-55" fill="#5091CD"></path>
                    <path d="M131.801289,26.4990555 L131.670051,25.8862183 C131.133742,26.3558927 130.51667,26.6685903 129.692647,26.6685903 C128.304551,26.6685903 127.558766,26.0042648 127.558766,24.727102 C127.558766,23.3318927 128.710885,22.4063578 131.002504,22.4063578 L131.343218,22.4063578 L131.343218,22.0421718 C131.343218,21.5071951 131.002504,21.2459858 130.269337,21.2459858 C129.601789,21.2459858 128.840861,21.4155206 128.187194,21.6377997 L127.924718,20.3857532 C128.815623,20.0077532 129.758266,19.7603579 130.793028,19.7603579 C132.507956,19.7603579 133.41148,20.54273 133.41148,21.8462648 L133.41148,26.4990555 L131.801289,26.4990555 Z M131.343218,23.6445904 L130.924266,23.6445904 C129.928623,23.6445904 129.587909,23.971102 129.587909,24.4922648 C129.587909,24.9481252 129.850385,25.2080787 130.321075,25.2080787 C130.64917,25.2080787 131.040361,25.0134276 131.343218,24.7660322 L131.343218,23.6445904 Z" id="Fill-56" fill="#5091CD"></path>
                    <path d="M135.898815,26.629033 C134.982672,26.629033 134.471601,26.3301493 134.471601,25.2740097 L134.471601,17.2581494 L136.567625,17.2581494 L136.567625,24.4527074 C136.567625,25.1434051 136.671101,25.2087074 136.973958,25.2087074 L137.29953,25.2087074 L137.380292,26.4205679 C136.961339,26.5511725 136.527244,26.629033 135.898815,26.629033" id="Fill-57" fill="#5091CD"></path>
                    <path d="M70.3105616,38.0136147 C69.5382759,38.0136147 68.7268711,37.9746845 67.9280853,37.9608705 L67.9280853,29.163894 C68.9489663,29.163894 69.8524902,29.1375219 70.716895,29.1375219 C73.5725856,29.1375219 74.6073475,30.857987 74.6073475,33.3080799 C74.6073475,36.2931496 73.2848713,38.0136147 70.3105616,38.0136147 M70.6121568,30.7537544 C70.4556806,30.7537544 70.2979425,30.7537544 70.1275854,30.7663125 L70.1275854,36.3320797 C70.2979425,36.3446379 70.4556806,36.3584518 70.5995378,36.3584518 C71.8059187,36.3584518 72.3018473,35.3023123 72.3018473,33.5291031 C72.3018473,31.5486846 71.7251568,30.7537544 70.6121568,30.7537544" id="Fill-58" fill="#5091CD"></path>
                    <path d="M76.4390009,30.819056 C75.44462,30.819056 75.1947628,30.5578467 75.1947628,29.7629164 C75.1947628,28.9943583 75.4685962,28.6942187 76.4390009,28.6942187 C77.4220247,28.6942187 77.656739,28.9679862 77.656739,29.7629164 C77.656739,30.5189165 77.3955247,30.819056 76.4390009,30.819056 L76.4390009,30.819056 Z M75.377739,37.9608701 L77.4725009,37.9608701 L77.4725009,31.379149 L75.377739,31.379149 L75.377739,37.9608701 Z" id="Fill-59" fill="#5091CD"></path>
                    <path d="M82.3713406,37.961498 L82.2401025,37.3486608 C81.7050549,37.8183352 81.0879835,38.1310329 80.2626978,38.1310329 C78.8746025,38.1310329 78.1300787,37.4667073 78.1300787,36.1895445 C78.1300787,34.7943352 79.279674,33.8688004 81.5725549,33.8688004 L81.9145311,33.8688004 L81.9145311,33.5033585 C81.9145311,32.9696376 81.5725549,32.7084283 80.8393883,32.7084283 C80.1718406,32.7084283 79.412174,32.8779632 78.7572454,33.1002422 L78.4960311,31.8481958 C79.385674,31.4701958 80.3283168,31.2228004 81.3630787,31.2228004 C83.0792692,31.2228004 83.982793,32.0051725 83.982793,33.3087074 L83.982793,37.961498 L82.3713406,37.961498 Z M81.914531,35.1070329 L81.4955787,35.1070329 C80.4999358,35.1070329 80.1579597,35.4335445 80.1579597,35.9547073 C80.1579597,36.4105678 80.4204359,36.6705213 80.8911263,36.6705213 C81.2192215,36.6705213 81.6116739,36.4758701 81.914531,36.2284748 L81.914531,35.1070329 Z" id="Fill-60" fill="#5091CD"></path>
                    <path d="M87.4917755,38.1301532 C86.6526088,38.1301532 85.7352041,37.9869904 85.0424183,37.8174555 L85.0424183,28.7203392 L87.1384422,28.7203392 L87.1384422,31.8221997 C87.5447755,31.4969439 88.0810851,31.2231764 88.6817517,31.2231764 C90.3853232,31.2231764 91.0932518,32.6949904 91.0932518,34.4028974 C91.0932518,37.0363393 89.7051565,38.1301532 87.4917755,38.1301532 M88.081085,32.813037 C87.8324898,32.813037 87.4766327,32.9561998 87.1384422,33.2299672 L87.1384422,36.5541068 C87.2822993,36.6055952 87.4917755,36.6583393 87.7794898,36.6583393 C88.4722755,36.6583393 88.9581089,36.0580603 88.9581089,34.6502928 C88.9581089,33.3856881 88.6173946,32.813037 88.081085,32.813037" id="Fill-61" fill="#5091CD"></path>
                    <path d="M93.6446973,35.1321492 L93.6446973,35.1974516 C93.6446973,36.1229865 94.1027688,36.5537306 94.9154355,36.5537306 C95.4908641,36.5537306 96.3426498,36.4356841 97.1679356,36.1882888 L97.4430308,37.3624748 C96.566007,37.8308934 95.5438641,38.1297772 94.510364,38.1297772 C92.7020544,38.1297772 91.5108163,37.2833585 91.5108163,34.8332655 C91.5108163,32.4484748 92.7285544,31.2228004 94.6794593,31.2228004 C96.4612689,31.2228004 97.679007,32.1219632 97.4821499,35.1321492 L93.6446973,35.1321492 Z M95.4782448,33.8424283 C95.4782448,32.9432656 95.1779115,32.5916377 94.615102,32.5916377 C94.0384115,32.5916377 93.6976972,33.0738702 93.6573163,33.8688004 L95.4782448,33.8688004 L95.4782448,33.8424283 Z" id="Fill-62" fill="#5091CD"></path>
                    <path d="M100.192084,38.1172181 C98.9213459,38.1172181 98.4241555,37.6613577 98.4241555,36.4093112 L98.4241555,32.826474 L97.7174888,32.826474 L97.7174888,31.3785205 L98.5162745,31.3785205 C98.6992507,30.7794973 98.8431078,30.1930321 98.986965,29.4495903 L100.520179,29.4495903 L100.520179,31.3785205 L101.777036,31.3785205 L101.777036,32.826474 L100.520179,32.826474 L100.520179,35.9019623 C100.520179,36.4231251 100.689274,36.5662879 100.99087,36.5662879 C101.187727,36.5662879 101.436322,36.5537298 101.816155,36.4620553 L101.960013,37.6487995 C101.279846,38.0004274 100.728394,38.1172181 100.192084,38.1172181" id="Fill-63" fill="#5091CD"></path>
                    <path d="M104.368491,35.1321492 L104.368491,35.1974516 C104.368491,36.1229865 104.826562,36.5537306 105.639229,36.5537306 C106.214657,36.5537306 107.067705,36.4356841 107.891729,36.1882888 L108.166824,37.3624748 C107.2898,37.8308934 106.267657,38.1297772 105.234157,38.1297772 C103.425848,38.1297772 102.23461,37.2833585 102.23461,34.8332655 C102.23461,32.4484748 103.452348,31.2228004 105.403252,31.2228004 C107.185062,31.2228004 108.4028,32.1219632 108.205943,35.1321492 L104.368491,35.1321492 Z M106.202038,33.8424283 C106.202038,32.9432656 105.901705,32.5916377 105.338895,32.5916377 C104.762205,32.5916377 104.42149,33.0738702 104.382371,33.8688004 L106.202038,33.8688004 L106.202038,33.8424283 Z" id="Fill-64" fill="#5091CD"></path>
                    <path d="M110.771642,38.1172187 C109.999356,38.1172187 109.304047,37.9087536 108.586023,37.5181955 L108.742499,36.4746141 C109.527404,36.6190327 109.985475,36.6705211 110.37919,36.6705211 C111.165356,36.6705211 111.41269,36.4093118 111.41269,36.1104281 C111.41269,35.7839165 111.229713,35.6018235 110.365309,35.301684 C109.13369,34.8847537 108.611261,34.3372189 108.611261,33.3074515 C108.611261,32.0441027 109.644761,31.2228004 111.177975,31.2228004 C111.819023,31.2228004 112.422213,31.3659632 113.194499,31.7828934 L112.997642,32.8126608 C112.370475,32.669498 112.004523,32.6305678 111.637309,32.6305678 C111.046737,32.6305678 110.798142,32.865405 110.798142,33.1379166 C110.798142,33.4518701 110.993737,33.5950329 111.806404,33.8813584 C113.142761,34.3108468 113.639952,34.9500561 113.639952,35.9145211 C113.639952,37.1527537 112.591309,38.1172187 110.771642,38.1172187" id="Fill-65" fill="#5091CD"></path>
                    <polygon id="Fill-66" fill="#5091CD" points="70.1282167 42.2801147 70.1282167 44.2869054 72.3807168 44.2869054 72.3807168 45.9043938 70.1282167 45.9043938 70.1282167 49.4231845 67.9274547 49.4231845 67.9274547 40.6249519 72.6949311 40.6249519 72.6949311 42.2801147"></polygon>
                    <path d="M74.986045,46.59522 L74.986045,46.6592665 C74.986045,47.5860572 75.4441165,48.0155456 76.2567831,48.0155456 C76.8322117,48.0155456 77.6839974,47.8974991 78.5092831,47.6501038 L78.7843784,48.8242898 C77.9048307,49.2927084 76.8852117,49.5915921 75.8504498,49.5915921 C74.0434022,49.5915921 72.8509022,48.7451735 72.8509022,46.2950805 C72.8509022,43.9102898 74.0673784,42.6846154 76.019545,42.6846154 C77.8000927,42.6846154 79.0203546,43.5837782 78.8234974,46.59522 L74.986045,46.59522 Z M76.8195926,45.3042433 C76.8195926,44.4050805 76.5179974,44.0534526 75.9551879,44.0534526 C75.3784974,44.0534526 75.0377832,44.5356852 74.9986641,45.3306154 L76.8195926,45.3306154 L76.8195926,45.3042433 Z" id="Fill-67" fill="#5091CD"></path>
                    <path d="M83.6541932,49.4225579 L83.510336,48.7971625 C82.9866456,49.2668369 82.384717,49.5920927 81.7032885,49.5920927 C80.027479,49.5920927 79.3195505,48.119023 79.3195505,46.4123718 C79.3195505,43.7525578 80.7215266,42.685116 82.6459313,42.685116 C82.8819075,42.685116 83.1443837,42.6976741 83.2617408,42.7102322 L83.2617408,40.1822787 L85.3577646,40.1822787 L85.3577646,49.4225579 L83.6541932,49.4225579 Z M83.261741,44.2486043 C83.0913839,44.1958601 82.8819077,44.1443717 82.6206934,44.1443717 C81.9127648,44.1443717 81.4546934,44.7572089 81.4546934,46.1511625 C81.4546934,47.4408834 81.7954077,47.9896741 82.3317172,47.9896741 C82.5815744,47.9896741 82.9210267,47.8452555 83.261741,47.5727439 L83.261741,44.2486043 Z" id="Fill-68" fill="#5091CD"></path>
                    <path d="M88.2373063,46.59522 L88.2373063,46.6592665 C88.2373063,47.5860572 88.6941159,48.0155456 89.5080445,48.0155456 C90.0834731,48.0155456 90.9352588,47.8974991 91.7605446,47.6501038 L92.0356398,48.8242898 C91.1573541,49.2927084 90.1364731,49.5915921 89.1017111,49.5915921 C87.2946635,49.5915921 86.1021634,48.7451735 86.1021634,46.2950805 C86.1021634,43.9102898 87.3199016,42.6846154 89.2708064,42.6846154 C91.052616,42.6846154 92.2703541,43.5837782 92.0747589,46.59522 L88.2373063,46.59522 Z M90.0708539,45.3042433 C90.0708539,44.4050805 89.7705205,44.0534526 89.2064491,44.0534526 C88.6310206,44.0534526 88.2903063,44.5356852 88.2499253,45.3306154 L90.0708539,45.3306154 L90.0708539,45.3042433 Z" id="Fill-69" fill="#5091CD"></path>
                    <path d="M96.7489798,44.6396665 C96.4473846,44.5605502 96.2505274,44.5479921 96.1205512,44.5479921 C95.778575,44.5479921 95.5047417,44.7564572 94.9810512,45.4207827 L94.9810512,49.4230618 L92.8837654,49.4230618 L92.8837654,42.8400851 L94.6012179,42.8400851 L94.7576941,43.7919921 C95.3873845,42.9443176 95.8063369,42.6969223 96.2909084,42.6969223 C96.5130036,42.6969223 96.7615989,42.7371083 96.9963131,42.853899 L96.7489798,44.6396665 Z" id="Fill-70" fill="#5091CD"></path>
                    <path d="M100.978377,49.4225561 L100.847139,48.8097189 C100.310829,49.2793933 99.6937576,49.5920909 98.8697338,49.5920909 C97.4816386,49.5920909 96.734591,48.9277654 96.734591,47.6506026 C96.734591,46.2553933 97.8879719,45.3298584 100.178329,45.3298584 L100.520305,45.3298584 L100.520305,44.9644166 C100.520305,44.4306957 100.178329,44.1694864 99.4451624,44.1694864 C98.7788767,44.1694864 98.0179481,44.3390212 97.3630195,44.5613003 L97.1018053,43.3092538 C97.99271,42.9312538 98.9353529,42.6838585 99.9688528,42.6838585 C101.685043,42.6838585 102.588567,43.4662306 102.588567,44.7697654 L102.588567,49.4225561 L100.978377,49.4225561 Z M100.520305,46.5680909 L100.101353,46.5680909 C99.10571,46.5680909 98.7649957,46.8946026 98.7649957,47.4157654 C98.7649957,47.8716258 99.0274719,48.1315793 99.4969005,48.1315793 C99.8262576,48.1315793 100.217448,47.9369282 100.520305,47.6895328 L100.520305,46.5680909 Z" id="Fill-71" fill="#5091CD"></path>
                    <path d="M105.468869,49.5790307 C104.198131,49.5790307 103.70094,49.1231702 103.70094,47.8711237 L103.70094,44.2882866 L102.993012,44.2882866 L102.993012,42.8403331 L103.793059,42.8403331 C103.976035,42.2413098 104.119893,41.6548447 104.26375,40.9114029 L105.796964,40.9114029 L105.796964,42.8403331 L107.053821,42.8403331 L107.053821,44.2882866 L105.796964,44.2882866 L105.796964,47.3637749 C105.796964,47.8849377 105.966059,48.0281005 106.267654,48.0281005 C106.464512,48.0281005 106.713107,48.0155423 107.09294,47.9238679 L107.236797,49.1093563 C106.556631,49.46224 106.005178,49.5790307 105.468869,49.5790307" id="Fill-72" fill="#5091CD"></path>
                    <path d="M108.898475,42.280744 C107.904094,42.280744 107.655499,42.0195347 107.655499,41.2246045 C107.655499,40.4547905 107.929332,40.1559068 108.898475,40.1559068 C109.881499,40.1559068 110.117475,40.4296742 110.117475,41.2246045 C110.117475,41.9806045 109.854999,42.280744 108.898475,42.280744 L108.898475,42.280744 Z M107.838475,49.4225582 L109.934499,49.4225582 L109.934499,42.840837 L107.838475,42.840837 L107.838475,49.4225582 Z" id="Fill-73" fill="#5091CD"></path>
                    <path d="M113.771069,49.5918418 C111.793664,49.5918418 110.680664,48.7052372 110.680664,46.2689582 C110.680664,43.8439814 111.937521,42.6836094 114.019664,42.6836094 C115.998331,42.6836094 117.110069,43.5576559 117.110069,45.9951907 C117.110069,48.4327256 115.85195,49.5918418 113.771069,49.5918418 M113.889688,44.1956094 C113.26126,44.1956094 112.828426,44.5999814 112.828426,45.9813768 C112.828426,47.7407721 113.247379,48.0672837 113.902307,48.0672837 C114.518117,48.0672837 114.962307,47.6754698 114.962307,46.2815163 C114.962307,44.522121 114.543355,44.1956094 113.889688,44.1956094" id="Fill-74" fill="#5091CD"></path>
                    <path d="M123.658086,49.4225564 L121.562063,49.4225564 C121.562063,48.0022307 121.615063,46.6986958 121.615063,46.0205563 C121.615063,44.5613004 121.390444,44.3390213 120.921015,44.3390213 C120.632039,44.3390213 120.292586,44.4959981 119.937991,44.7308353 L119.937991,49.4225564 L117.843229,49.4225564 L117.843229,42.8408352 L119.558158,42.8408352 L119.700753,43.4926027 C120.239586,42.983998 120.894515,42.6838585 121.65292,42.6838585 C123.081396,42.6838585 123.711086,43.5704632 123.711086,45.6953004 C123.711086,46.4513005 123.658086,47.8841842 123.658086,49.4225564" id="Fill-75" fill="#5091CD"></path>
                    <path d="M32.6579725,13.4221401 C31.7430915,13.4660936 27.4412581,13.4259075 22.3053056,11.1792563 C18.4754246,9.40353526 16.944734,1.93646519 17.1794483,0 C27.3920438,0 34.5230678,6.61186073 35.7471154,8.93888408 C35.0000678,9.83302365 33.3873535,11.5811167 32.6579725,13.4221401" id="Fill-76" fill="#5091CD"></path>
                    <path d="M28.3695151,22.0252182 C28.3695151,22.0252182 10.9463957,23.4593577 0.0309192451,13.1026604 C-0.680795056,12.8703349 11.0195861,7.79935833 22.2013245,11.9422884 C33.3818009,16.0852184 35.7478724,12.8050325 35.7478724,12.8050325" id="Stroke-77" stroke="#5091CD" stroke-width="0.667" stroke-linecap="round"></path>
                    <path d="M32.692548,13.4301764 C32.692548,13.4301764 35.3185718,6.76180451 40.761167,6.76180451 C44.7046193,6.76306033 44.1746193,9.12901376 48.3237622,8.8527347 C52.552405,8.57143238 52.5334764,8.54254866 57.4965478,8.56766494 C57.4965478,8.56766494 51.0002621,8.07287425 45.9299288,10.2090137 C41.1662384,12.8010137 42.4748336,18.7623624 40.5542146,22.5900832 C38.6361194,26.4165482 30.4564527,30.0671993 25.8883575,34.3432457 C21.3177385,38.6180363 17.9257385,43.2997106 17.9257385,43.2997106" id="Stroke-78" stroke="#5091CD" stroke-width="0.667" stroke-linecap="round" stroke-linejoin="round"></path>
                    <path d="M28.4274358,22.0926563 C24.5003881,32.120331 18.2829834,39.4831684 18.2829834,39.4831684 C18.2829834,39.4831684 12.9274596,46.270843 15.4007929,48.6079129 C17.8753882,50.9424711 22.183531,47.7954012 22.183531,47.7954012" id="Stroke-79" stroke="#5091CD" stroke-width="0.667" stroke-linecap="round"></path>
                    <path d="M42.2714163,9.33710244 C42.2714163,9.85198614 41.8524639,10.2689164 41.335083,10.2689164 C40.8189639,10.2689164 40.3974877,9.85198614 40.3974877,9.33710244 C40.3974877,8.82221874 40.8189639,8.4027769 41.335083,8.4027769 C41.8524639,8.4027769 42.2714163,8.82221874 42.2714163,9.33710244" id="Fill-80" fill="#5091CD"></path>
                </g>
            </g>
        </g>
    </g>
</svg>